<svg width="281" height="240" viewBox="0 0 281 240" fill="none" xmlns="http://www.w3.org/2000/svg">
<g filter="url(#filter0_ddd_3071_163930)">
<rect x="30.4941" y="50.3008" width="220" height="172.271" rx="4" transform="rotate(-5 30.4941 50.3008)" fill="white"/>
<rect x="31.0358" y="50.7553" width="219" height="171.271" rx="3.5" transform="rotate(-5 31.0358 50.7553)" stroke="#F8FAFC"/>
</g>
<line x1="80.76" y1="120" x2="133.508" y2="115.385" stroke="#E0E2E6" stroke-width="6"/>
<line opacity="0.5" x1="157.282" y1="113.304" x2="187.741" y2="110.639" stroke="#E0E2E6" stroke-width="6"/>
<line opacity="0.5" x1="195.912" y1="109.925" x2="218.943" y2="107.911" stroke="#C7E5F2" stroke-width="6"/>
<line x1="81.6702" y1="130.402" x2="112.13" y2="127.737" stroke="#E0E2E6" stroke-width="6"/>
<line opacity="0.5" x1="158.192" y1="123.707" x2="181.222" y2="121.692" stroke="#E0E2E6" stroke-width="6"/>
<line opacity="0.5" x1="196.823" y1="120.324" x2="219.853" y2="118.309" stroke="#C7E5F2" stroke-width="6"/>
<line x1="82.5803" y1="140.8" x2="120.469" y2="137.486" stroke="#E0E2E6" stroke-width="6"/>
<line opacity="0.5" x1="159.102" y1="134.105" x2="189.562" y2="131.44" stroke="#E0E2E6" stroke-width="6"/>
<line opacity="0.5" x1="197.733" y1="130.726" x2="220.763" y2="128.711" stroke="#FFD4DF" stroke-width="6"/>
<line x1="84.1619" y1="158.867" x2="136.91" y2="154.252" stroke="#E0E2E6" stroke-width="10"/>
<line x1="85.1589" y1="170.281" x2="123.048" y2="166.966" stroke="#9297A0" stroke-width="2"/>
<line x1="161.68" y1="163.586" x2="184.711" y2="161.571" stroke="#9297A0" stroke-width="2"/>
<line x1="200.313" y1="160.207" x2="223.344" y2="158.192" stroke="#9297A0" stroke-width="2"/>
<line x1="85.8948" y1="178.687" x2="123.784" y2="175.372" stroke="#E0E2E6" stroke-width="6"/>
<line opacity="0.5" x1="162.416" y1="171.996" x2="192.876" y2="169.331" stroke="#E0E2E6" stroke-width="6"/>
<line opacity="0.5" x1="201.049" y1="168.617" x2="224.08" y2="166.602" stroke="#C7E5F2" stroke-width="6"/>
<line x1="86.8049" y1="189.093" x2="139.553" y2="184.479" stroke="#E0E2E6" stroke-width="6"/>
<line opacity="0.5" x1="163.326" y1="182.398" x2="193.786" y2="179.733" stroke="#E0E2E6" stroke-width="6"/>
<line opacity="0.5" x1="201.957" y1="179.015" x2="224.988" y2="177" stroke="#E2D5F7" stroke-width="6"/>
<line opacity="0.5" x1="164.235" y1="192.797" x2="187.265" y2="190.782" stroke="#E0E2E6" stroke-width="6"/>
<line opacity="0.5" x1="202.867" y1="189.418" x2="225.898" y2="187.403" stroke="#FFD4DF" stroke-width="6"/>
<path d="M72.3203 160.434L75.7828 163.339L78.2637 159.914" stroke="#9297A0"/>
<line x1="75.3845" y1="58.5698" x2="157.849" y2="51.3551" stroke="#E0E2E6" stroke-width="10"/>
<line x1="76.3855" y1="69.9843" x2="121.704" y2="66.0194" stroke="#9297A0" stroke-width="2"/>
<line x1="152.905" y1="63.289" x2="175.936" y2="61.274" stroke="#9297A0" stroke-width="2"/>
<line x1="191.538" y1="59.9101" x2="214.569" y2="57.8951" stroke="#9297A0" stroke-width="2"/>
<line x1="77.1194" y1="78.3942" x2="122.438" y2="74.4294" stroke="#E0E2E6" stroke-width="6"/>
<line opacity="0.5" x1="153.641" y1="71.7028" x2="184.101" y2="69.0379" stroke="#E0E2E6" stroke-width="6"/>
<line opacity="0.5" x1="192.274" y1="68.32" x2="215.304" y2="66.3051" stroke="#EDF7EE" stroke-width="6"/>
<line x1="78.0295" y1="88.7966" x2="130.777" y2="84.1817" stroke="#E0E2E6" stroke-width="6"/>
<line opacity="0.5" x1="154.551" y1="82.1013" x2="185.011" y2="79.4364" stroke="#E0E2E6" stroke-width="6"/>
<line opacity="0.5" x1="193.184" y1="78.7224" x2="216.215" y2="76.7074" stroke="#FFD4DF" stroke-width="6"/>
<line x1="78.9397" y1="99.1989" x2="116.829" y2="95.884" stroke="#E0E2E6" stroke-width="6"/>
<line opacity="0.5" x1="155.461" y1="92.4997" x2="178.492" y2="90.4848" stroke="#E0E2E6" stroke-width="6"/>
<line opacity="0.5" x1="194.094" y1="89.1208" x2="217.125" y2="87.1059" stroke="#EDF7EE" stroke-width="6"/>
<line x1="79.8499" y1="109.597" x2="125.168" y2="105.633" stroke="#E0E2E6" stroke-width="6"/>
<line opacity="0.5" x1="156.371" y1="102.902" x2="186.831" y2="100.237" stroke="#E0E2E6" stroke-width="6"/>
<line opacity="0.5" x1="195.004" y1="99.5231" x2="218.035" y2="97.5082" stroke="#D3EBD5" stroke-width="6"/>
<path d="M63.5449 60.1367L67.0074 63.0421L69.4883 59.6167" stroke="#9297A0"/>
<g filter="url(#filter1_ddd_3071_163930)">
<rect x="16" y="14.0039" width="220" height="182.271" rx="4" fill="white"/>
<rect x="16.5" y="14.5039" width="219" height="181.271" rx="3.5" stroke="#E0E0E0"/>
</g>
<line x1="60" y1="94.8164" x2="112.949" y2="94.8164" stroke="#E0E2E6" stroke-width="6"/>
<line opacity="0.5" x1="136.814" y1="94.8164" x2="167.391" y2="94.8164" stroke="#E0E2E6" stroke-width="6"/>
<line opacity="0.5" x1="175.594" y1="94.8164" x2="198.712" y2="94.8164" stroke="#C7E5F2" stroke-width="6"/>
<line x1="60" y1="105.258" x2="90.5763" y2="105.258" stroke="#E0E2E6" stroke-width="6"/>
<line opacity="0.5" x1="136.814" y1="105.258" x2="159.933" y2="105.258" stroke="#E0E2E6" stroke-width="6"/>
<line opacity="0.5" x1="175.594" y1="105.258" x2="198.712" y2="105.258" stroke="#C7E5F2" stroke-width="6"/>
<line x1="60" y1="115.699" x2="98.0339" y2="115.699" stroke="#E0E2E6" stroke-width="6"/>
<line opacity="0.5" x1="136.814" y1="115.699" x2="167.391" y2="115.699" stroke="#E0E2E6" stroke-width="6"/>
<line opacity="0.5" x1="175.594" y1="115.699" x2="198.712" y2="115.699" stroke="#FFD4DF" stroke-width="6"/>
<line x1="60" y1="133.836" x2="112.949" y2="133.836" stroke="#E0E2E6" stroke-width="10"/>
<line x1="60" y1="145.293" x2="98.0339" y2="145.293" stroke="#9297A0" stroke-width="2"/>
<line x1="136.814" y1="145.293" x2="159.933" y2="145.293" stroke="#9297A0" stroke-width="2"/>
<line x1="175.594" y1="145.293" x2="198.712" y2="145.293" stroke="#9297A0" stroke-width="2"/>
<line x1="60" y1="153.734" x2="98.0339" y2="153.734" stroke="#E0E2E6" stroke-width="6"/>
<line opacity="0.5" x1="136.814" y1="153.734" x2="167.391" y2="153.734" stroke="#E0E2E6" stroke-width="6"/>
<line opacity="0.5" x1="175.594" y1="153.734" x2="198.712" y2="153.734" stroke="#C7E5F2" stroke-width="6"/>
<line x1="60" y1="164.172" x2="112.949" y2="164.172" stroke="#E0E2E6" stroke-width="6"/>
<line opacity="0.5" x1="136.814" y1="164.172" x2="167.391" y2="164.172" stroke="#E0E2E6" stroke-width="6"/>
<line opacity="0.5" x1="175.594" y1="164.172" x2="198.712" y2="164.172" stroke="#E2D5F7" stroke-width="6"/>
<line x1="60" y1="174.613" x2="98.0339" y2="174.613" stroke="#E0E2E6" stroke-width="6"/>
<line opacity="0.5" x1="136.814" y1="174.613" x2="159.933" y2="174.613" stroke="#E0E2E6" stroke-width="6"/>
<line opacity="0.5" x1="175.594" y1="174.613" x2="198.712" y2="174.613" stroke="#FFD4DF" stroke-width="6"/>
<path d="M48.0684 134.359L51.2645 137.556L54.0345 134.359" stroke="#9297A0"/>
<line x1="60" y1="33.1562" x2="142.78" y2="33.1562" stroke="#E0E2E6" stroke-width="10"/>
<line x1="60" y1="44.6133" x2="105.492" y2="44.6133" stroke="#9297A0" stroke-width="2"/>
<line x1="136.814" y1="44.6133" x2="159.933" y2="44.6133" stroke="#9297A0" stroke-width="2"/>
<line x1="175.594" y1="44.6133" x2="198.712" y2="44.6133" stroke="#9297A0" stroke-width="2"/>
<line x1="60" y1="53.0547" x2="105.492" y2="53.0547" stroke="#E0E2E6" stroke-width="6"/>
<line opacity="0.5" x1="136.814" y1="53.0547" x2="167.391" y2="53.0547" stroke="#E0E2E6" stroke-width="6"/>
<line opacity="0.5" x1="175.594" y1="53.0547" x2="198.712" y2="53.0547" stroke="#EDF7EE" stroke-width="6"/>
<line x1="60" y1="63.4961" x2="112.949" y2="63.4961" stroke="#E0E2E6" stroke-width="6"/>
<line opacity="0.5" x1="136.814" y1="63.4961" x2="167.391" y2="63.4961" stroke="#E0E2E6" stroke-width="6"/>
<line opacity="0.5" x1="175.594" y1="63.4961" x2="198.712" y2="63.4961" stroke="#FFD4DF" stroke-width="6"/>
<line x1="60" y1="73.9375" x2="98.0339" y2="73.9375" stroke="#E0E2E6" stroke-width="6"/>
<line opacity="0.5" x1="136.814" y1="73.9375" x2="159.933" y2="73.9375" stroke="#E0E2E6" stroke-width="6"/>
<line opacity="0.5" x1="175.594" y1="73.9375" x2="198.712" y2="73.9375" stroke="#EDF7EE" stroke-width="6"/>
<line x1="60" y1="84.375" x2="105.492" y2="84.375" stroke="#E0E2E6" stroke-width="6"/>
<line opacity="0.5" x1="136.814" y1="84.375" x2="167.391" y2="84.375" stroke="#E0E2E6" stroke-width="6"/>
<line opacity="0.5" x1="175.594" y1="84.375" x2="198.712" y2="84.375" stroke="#D3EBD5" stroke-width="6"/>
<path d="M48.0684 33.6836L51.2645 36.8797L54.0345 33.6836" stroke="#9297A0"/>
<defs>
<filter id="filter0_ddd_3071_163930" x="14.8281" y="17.4609" width="265.51" height="222.121" filterUnits="userSpaceOnUse" color-interpolation-filters="sRGB">
<feFlood flood-opacity="0" result="BackgroundImageFix"/>
<feColorMatrix in="SourceAlpha" type="matrix" values="0 0 0 0 0 0 0 0 0 0 0 0 0 0 0 0 0 0 127 0" result="hardAlpha"/>
<feOffset dy="2"/>
<feGaussianBlur stdDeviation="8"/>
<feComposite in2="hardAlpha" operator="out"/>
<feColorMatrix type="matrix" values="0 0 0 0 0.0941176 0 0 0 0 0.113725 0 0 0 0 0.14902 0 0 0 0.06 0"/>
<feBlend mode="normal" in2="BackgroundImageFix" result="effect1_dropShadow_3071_163930"/>
<feColorMatrix in="SourceAlpha" type="matrix" values="0 0 0 0 0 0 0 0 0 0 0 0 0 0 0 0 0 0 127 0" result="hardAlpha"/>
<feOffset dy="2"/>
<feGaussianBlur stdDeviation="2"/>
<feComposite in2="hardAlpha" operator="out"/>
<feColorMatrix type="matrix" values="0 0 0 0 0.0941176 0 0 0 0 0.113725 0 0 0 0 0.14902 0 0 0 0.08 0"/>
<feBlend mode="normal" in2="effect1_dropShadow_3071_163930" result="effect2_dropShadow_3071_163930"/>
<feColorMatrix in="SourceAlpha" type="matrix" values="0 0 0 0 0 0 0 0 0 0 0 0 0 0 0 0 0 0 127 0" result="hardAlpha"/>
<feOffset/>
<feGaussianBlur stdDeviation="0.5"/>
<feComposite in2="hardAlpha" operator="out"/>
<feColorMatrix type="matrix" values="0 0 0 0 0.0941176 0 0 0 0 0.113725 0 0 0 0 0.14902 0 0 0 0.24 0"/>
<feBlend mode="normal" in2="effect2_dropShadow_3071_163930" result="effect3_dropShadow_3071_163930"/>
<feBlend mode="normal" in="SourceGraphic" in2="effect3_dropShadow_3071_163930" result="shape"/>
</filter>
<filter id="filter1_ddd_3071_163930" x="0" y="0.00390625" width="252" height="214.27" filterUnits="userSpaceOnUse" color-interpolation-filters="sRGB">
<feFlood flood-opacity="0" result="BackgroundImageFix"/>
<feColorMatrix in="SourceAlpha" type="matrix" values="0 0 0 0 0 0 0 0 0 0 0 0 0 0 0 0 0 0 127 0" result="hardAlpha"/>
<feOffset dy="2"/>
<feGaussianBlur stdDeviation="8"/>
<feComposite in2="hardAlpha" operator="out"/>
<feColorMatrix type="matrix" values="0 0 0 0 0.0941176 0 0 0 0 0.113725 0 0 0 0 0.14902 0 0 0 0.06 0"/>
<feBlend mode="normal" in2="BackgroundImageFix" result="effect1_dropShadow_3071_163930"/>
<feColorMatrix in="SourceAlpha" type="matrix" values="0 0 0 0 0 0 0 0 0 0 0 0 0 0 0 0 0 0 127 0" result="hardAlpha"/>
<feOffset dy="2"/>
<feGaussianBlur stdDeviation="2"/>
<feComposite in2="hardAlpha" operator="out"/>
<feColorMatrix type="matrix" values="0 0 0 0 0.0941176 0 0 0 0 0.113725 0 0 0 0 0.14902 0 0 0 0.08 0"/>
<feBlend mode="normal" in2="effect1_dropShadow_3071_163930" result="effect2_dropShadow_3071_163930"/>
<feColorMatrix in="SourceAlpha" type="matrix" values="0 0 0 0 0 0 0 0 0 0 0 0 0 0 0 0 0 0 127 0" result="hardAlpha"/>
<feOffset/>
<feGaussianBlur stdDeviation="0.5"/>
<feComposite in2="hardAlpha" operator="out"/>
<feColorMatrix type="matrix" values="0 0 0 0 0.0941176 0 0 0 0 0.113725 0 0 0 0 0.14902 0 0 0 0.24 0"/>
<feBlend mode="normal" in2="effect2_dropShadow_3071_163930" result="effect3_dropShadow_3071_163930"/>
<feBlend mode="normal" in="SourceGraphic" in2="effect3_dropShadow_3071_163930" result="shape"/>
</filter>
</defs>
</svg>
